<?xml version="1.0" standalone="no"?><!DOCTYPE svg PUBLIC "-//W3C//DTD SVG 1.1//EN" "http://www.w3.org/Graphics/SVG/1.1/DTD/svg11.dtd"><svg t="1715223226622" class="icon" viewBox="0 0 1024 1024" version="1.1" xmlns="http://www.w3.org/2000/svg" p-id="5309" xmlns:xlink="http://www.w3.org/1999/xlink" width="200" height="200"><path d="M886.426112 0c19.456 0 35.1744 15.7696 35.1744 35.2256v915.2a35.2256 35.2256 0 0 1-59.0336 25.856l-169.7792-156.2624-169.728 156.2624a35.2256 35.2256 0 0 1-47.7184 0L305.664512 820.0192l-169.7792 156.2624A35.1744 35.1744 0 0 1 76.800512 950.4256V35.2256C76.800512 15.7696 92.570112 0 112.026112 0h774.4z m-35.2256 70.4H147.200512v799.744l134.5536-123.8528a35.2256 35.2256 0 0 1 47.6672 0l169.7792 156.2624 169.7792-156.2624a35.2256 35.2256 0 0 1 47.616 0l134.6048 123.904V70.3488z m-434.688 147.0976l81.5616 69.888L582.656512 219.0336a35.1744 35.1744 0 1 1 44.288 54.784L535.450112 347.6992v1.024l0.0512 2.1504h106.7008a35.2256 35.2256 0 0 1 0 70.4H535.552512v70.4h69.3248a35.1744 35.1744 0 1 1 0 70.4H535.501312v105.5744a35.1744 35.1744 0 1 1-70.4 0v-105.5744H393.626112a35.1744 35.1744 0 1 1 0-70.4h71.4752V421.3248H356.198912a35.2256 35.2256 0 0 1 0-70.4h107.8272a35.84 35.84 0 0 1-0.9216-0.8192L370.688512 270.9504a35.1744 35.1744 0 1 1 45.824-53.4528z" fill="#000000" p-id="5310"></path></svg>