<?xml version="1.0" standalone="no"?><!DOCTYPE svg PUBLIC "-//W3C//DTD SVG 1.1//EN" "http://www.w3.org/Graphics/SVG/1.1/DTD/svg11.dtd"><svg t="1715223639105" class="icon" viewBox="0 0 1186 1024" version="1.1" xmlns="http://www.w3.org/2000/svg" p-id="9177" xmlns:xlink="http://www.w3.org/1999/xlink" width="231.640625" height="200"><path d="M1164.647082 35.191411a93.232988 93.232988 0 0 0-97.8138-31.850113L69.9948 270.645124A93.610231 93.610231 0 0 0 1.767654 343.884217a93.718015 93.718015 0 0 0 36.053682 93.340771L258.724236 602.619231v328.525025a93.825799 93.825799 0 0 0 63.969685 87.574338c10.293353 3.502974 20.856165 5.281406 31.257303 5.281406 27.808221 0 54.376928-12.287353 72.538498-34.652492l134.568075-160.328404 96.897637 72.538498a94.095258 94.095258 0 0 0 77.766012 16.383138 94.310826 94.310826 0 0 0 62.67628-48.718278l376.812168-731.690332A93.394663 93.394663 0 0 0 1164.647082 35.191411z m-61.436767 65.370875l-376.812168 731.690332a13.634651 13.634651 0 0 1-20.101678 4.634704l-236.423768-177.034893a40.418925 40.418925 0 0 0-48.50271 64.67028l74.748066 55.993685-132.089048 157.418241a12.934056 12.934056 0 0 1-15.197516 4.365244c-4.203568-1.401189-9.215515-4.796379-9.377191-12.017894v-324.6987L879.828388 290.477343a40.418925 40.418925 0 1 0-40.742277-69.843903l-537.302247 313.327509-215.567602-161.406241a12.987948 12.987948 0 0 1-5.173622-13.365192 12.934056 12.934056 0 0 1 9.754434-10.455028L1087.74334 81.37677c7.38319-1.994 11.91011 1.994 13.958002 4.526919s5.011947 7.868217 1.508973 14.658597z" p-id="9178"></path></svg>