<svg xmlns="http://www.w3.org/2000/svg" xmlns:xlink="http://www.w3.org/1999/xlink" fill="none" version="1.1" width="24" height="24" viewBox="0 0 24 24"><defs><clipPath id="master_svg0_534_3796"><rect x="0" y="0" width="24" height="24" rx="0"/></clipPath></defs><g clip-path="url(#master_svg0_534_3796)"><g><path d="M19.14690419921875,9.104915703125C19.14690419921875,7.650365703125,17.95910419921875,6.468545703125001,16.49710419921875,6.468545703125001L12.01999419921875,6.468545703125001L10.46669419921875,4.286731703125C10.283954199218751,4.104913703125,10.10120419921875,3.923095703125,9.827094199218749,3.923095703125L5.62405419921875,3.923095703125C4.16212419921875,3.923095703125,2.97430419921875,5.104915703125,2.97430419921875,6.559455703125L2.97430419921875,17.286695703124998C2.97430419921875,18.741295703124997,4.16212419921875,19.923095703125,5.62405419921875,19.923095703125L17.04540419921875,19.923095703125C18.23320419921875,19.923095703125,19.23830419921875,19.104895703125003,19.51240419921875,18.013995703124998L20.88290419921875,12.286735703125C20.97430419921875,12.014005703125,20.97430419921875,11.832185703124999,20.97430419921875,11.559455703125C20.97430419921875,10.468545703124999,20.24330419921875,9.377645703125001,19.14690419921875,9.104915703125ZM4.43623419921875,13.650365703125L4.43623419921875,6.559455703125C4.43623419921875,5.923095703125,4.984454199218749,5.377645703125,5.62405419921875,5.377645703125L9.37024419921875,5.377645703125L11.01491419921875,7.559455703125C11.19765419921875,7.832185703125,11.47176419921875,7.923095703125,11.74587419921875,7.923095703125L16.49710419921875,7.923095703125C17.136704199218748,7.923095703125,17.68500419921875,8.377645703125001,17.68500419921875,9.014005703125001L7.63420419921875,9.014005703125001C6.3550141992187505,9.014005703125001,5.34993419921875,9.923095703125,5.07582419921875,11.104915703125L4.43623419921875,13.650365703125ZM19.51240419921875,12.014005703125L18.05040419921875,17.559495703125002L18.05040419921875,17.650395703125C18.05040419921875,17.741295703124997,18.05040419921875,17.741295703124997,17.95910419921875,17.832195703125002C17.86770419921875,17.923095703125,17.86770419921875,18.013995703124998,17.77630419921875,18.104895703125003C17.593604199218753,18.286695703124998,17.22810419921875,18.377595703125,16.95400419921875,18.377595703125L6.3550141992187505,18.377595703125C5.7154241992187504,18.377595703125,5.16719419921875,17.832195703125002,5.16719419921875,17.195795703125L5.16719419921875,16.923095703125L6.53775419921875,11.377645703125001C6.62912419921875,10.832185703124999,7.17735419921875,10.468545703124999,7.72557419921875,10.468545703124999L18.41590419921875,10.468545703124999C19.05550419921875,10.468545703124999,19.60370419921875,11.014005703125001,19.60370419921875,11.650365703125C19.60370419921875,11.741275703125,19.60370419921875,11.832185703124999,19.51240419921875,12.014005703125Z" fill="#FFFFFF" fill-opacity="1"/></g></g></svg>