<svg xmlns="http://www.w3.org/2000/svg" xmlns:xlink="http://www.w3.org/1999/xlink" fill="none" version="1.1" width="24" height="24" viewBox="0 0 24 24"><defs><clipPath id="master_svg0_611_02782"><rect x="0" y="0" width="24" height="24" rx="0"/></clipPath></defs><g><g clip-path="url(#master_svg0_611_02782)"><g><path d="M19.147209375,9.104915703125C19.147209375,7.650365703125,17.959409375,6.468545703125001,16.497409375,6.468545703125001L12.020299375,6.468545703125001L10.466999375,4.286731703125C10.284259375000001,4.104913703125,10.101509375,3.923095703125,9.827399374999999,3.923095703125L5.624359375,3.923095703125C4.162429375,3.923095703125,2.974609375,5.104915703125,2.974609375,6.559455703125L2.974609375,17.286695703124998C2.974609375,18.741295703124997,4.162429375,19.923095703125,5.624359375,19.923095703125L17.045709375,19.923095703125C18.233509375,19.923095703125,19.238609375,19.104895703125003,19.512709375,18.013995703124998L20.883209375,12.286735703125C20.974609375,12.014005703125,20.974609375,11.832185703124999,20.974609375,11.559455703125C20.974609375,10.468545703124999,20.243609375,9.377645703125001,19.147209375,9.104915703125ZM4.436539375,13.650365703125L4.436539375,6.559455703125C4.436539375,5.923095703125,4.984759374999999,5.377645703125,5.624359375,5.377645703125L9.370549375,5.377645703125L11.015219375,7.559455703125C11.197959375,7.832185703125,11.472069375,7.923095703125,11.746179375,7.923095703125L16.497409375,7.923095703125C17.137009374999998,7.923095703125,17.685309375,8.377645703125001,17.685309375,9.014005703125001L7.634509375,9.014005703125001C6.3553193750000005,9.014005703125001,5.350239375,9.923095703125,5.076129375,11.104915703125L4.436539375,13.650365703125ZM19.512709375,12.014005703125L18.050709375,17.559495703125002L18.050709375,17.650395703125C18.050709375,17.741295703124997,18.050709375,17.741295703124997,17.959409375,17.832195703125002C17.868009375,17.923095703125,17.868009375,18.013995703124998,17.776609375,18.104895703125003C17.593909375000003,18.286695703124998,17.228409375,18.377595703125,16.954309375,18.377595703125L6.3553193750000005,18.377595703125C5.7157293750000004,18.377595703125,5.167499375,17.832195703125002,5.167499375,17.195795703125L5.167499375,16.923095703125L6.538059375,11.377645703125001C6.629429375,10.832185703124999,7.177659375,10.468545703124999,7.725879375,10.468545703124999L18.416209375,10.468545703124999C19.055809375,10.468545703124999,19.604009375,11.014005703125001,19.604009375,11.650365703125C19.604009375,11.741275703125,19.604009375,11.832185703124999,19.512709375,12.014005703125Z" fill="#333333" fill-opacity="1"/></g></g></g></svg>