<svg xmlns="http://www.w3.org/2000/svg" xmlns:xlink="http://www.w3.org/1999/xlink" fill="none" version="1.1" width="24" height="24" viewBox="0 0 24 24"><defs><clipPath id="master_svg0_534_3786"><rect x="0" y="0" width="24" height="24" rx="0"/></clipPath></defs><g clip-path="url(#master_svg0_534_3786)"><g><path d="M13.8053,9.636005C13.6727,9.494449,13.5313,9.366845,13.3856,9.248526L13.3854,9.248784C13.2354,9.0948238,13.0319,9,12.80744,9C12.3468,9,11.9734,9.398711,11.9734,9.890534C11.9734,10.10816,12.04662,10.30749,12.16808,10.46217L12.16806,10.46217C12.16808,10.4622,12.16813,10.46224,12.16817,10.46227C12.22652,10.53657,12.29594,10.60064,12.37387,10.65135C12.45251,10.7206,12.52971,10.78878,12.60189,10.86586L12.67065,10.9393C13.5351,11.86111,13.277,13.449290000000001,12.41259,14.37228L8.723980000000001,18.30959C7.8596,19.2314,6.4543099999999995,19.2314,5.58988,18.30959L5.52057,18.23554C4.65612,17.3126,4.65612,15.81101,5.52057,14.8903L7.15017,13.15089C7.35925,12.973700000000001,7.49347,12.7002,7.49347,12.39308C7.49347,11.85888,7.08791,11.42585,6.58761,11.42585C6.39881,11.42585,6.2235700000000005,11.48756,6.07845,11.59305C6.07799,11.59202,6.07751,11.59104,6.077030000000001,11.58998L6.0596499999999995,11.607330000000001C5.9955099999999995,11.65657,5.93751,11.71433,5.8874200000000005,11.77942L4.19392,13.47143C2.602027,15.172329999999999,2.602027,17.95416,4.19392,19.6527L4.26268,19.726100000000002C5.85457,21.424599999999998,8.45879,21.424599999999998,10.05068,19.726100000000002L13.7382,15.78761C15.3279,14.08797,15.4627,11.4068,13.873,9.70825L13.8053,9.636005Z" fill="#FFFFFF" fill-opacity="1"/></g><g><path d="M19.8039,4.27414L19.735,4.20476C18.14004,2.598413,15.530750000000001,2.598413,13.93576,4.20476L10.24107,7.92684C8.646077,9.533190000000001,8.55824,11.85284,10.15323,13.4602L10.22102,13.5275C10.29346,13.6004,10.36864,13.6692,10.44539,13.7351C10.50095,13.7976,10.56621,13.8511,10.63875,13.8934C10.6393,13.8938,10.63988,13.8943,10.64043,13.8947L10.64067,13.8945C10.75629,13.9615,10.89027,14,11.033249999999999,14C11.46896,14,11.82215,13.6442,11.82215,13.2055C11.82215,13.0816,11.79399,12.9644,11.743780000000001,12.8599C11.639479999999999,12.62405,11.44425,12.48047,11.30921,12.34446L11.2414,12.27727C10.37533,11.40503,10.70421,10.13782,11.57028,9.26559L15.26715,5.54457C16.13108,4.67229,17.5396,4.67229,18.40571,5.54457L18.47464,5.61284C19.3407,6.4851399999999995,19.3407,7.90479,18.47464,8.775960000000001L16.84722,10.416080000000001C16.62582,10.58128,16.48225,10.84627,16.48225,11.14505C16.48225,11.6458,16.88533,12.05177,17.382559999999998,12.05177C17.55561,12.05177,17.71721,12.00249,17.854419999999998,11.91726C17.855449999999998,11.91903,17.85642,11.92067,17.85745,11.92247L17.88269,11.899C17.96045,11.84657,18.029519999999998,11.7822,18.08759,11.7086L19.8027,10.114709999999999C21.398899999999998,8.508379999999999,21.398899999999998,5.88047,19.8039,4.27414Z" fill="#FFFFFF" fill-opacity="1"/></g></g></svg>