<svg xmlns="http://www.w3.org/2000/svg" xmlns:xlink="http://www.w3.org/1999/xlink" fill="none" version="1.1" width="24" height="24" viewBox="0 0 24 24"><defs><clipPath id="master_svg0_611_02783/611_02742"><rect x="0" y="0" width="24" height="24" rx="0"/></clipPath></defs><g><g><g clip-path="url(#master_svg0_611_02783/611_02742)"><g><path d="M21.315819967651368,12.790798515625L17.346919967651367,19.987578515625C17.20871996765137,20.239678515625,17.005419967651367,20.450078515625,16.758319967651367,20.596778515625C16.511119967651368,20.743478515625,16.229119967651368,20.821178515625,15.941619967651366,20.821778515625L8.059959967651366,20.821778515625C7.772519967651367,20.821178515625,7.490499967651367,20.743478515625,7.243329967651367,20.596778515625C6.996149967651367,20.450078515625,6.792879967651367,20.239678515625,6.654729967651368,19.987578515625L2.6857999676513673,12.790798515625C2.552390067651367,12.548598515625,2.482419967651367,12.276498515625,2.482419967651367,11.999898515625C2.482419967651367,11.723298515625,2.552390067651367,11.451198515625,2.6857999676513673,11.208898515625L6.654729967651368,4.012108515625C6.792879967651367,3.760048515625,6.996149967651367,3.549678515625,7.243329967651367,3.402958515625C7.490499967651367,3.256238415625,7.772519967651367,3.178538560625,8.059959967651366,3.177978515625L15.941619967651366,3.177978515625C16.229119967651368,3.178538560625,16.511119967651368,3.256238415625,16.758319967651367,3.402958515625C17.005419967651367,3.549678515625,17.20871996765137,3.760048515625,17.346919967651367,4.012108515625L21.315819967651368,11.208898515625C21.449219967651366,11.451198515625,21.519219967651367,11.723298515625,21.519219967651367,11.999898515625C21.519219967651367,12.276498515625,21.449219967651366,12.548598515625,21.315819967651368,12.790798515625ZM19.897319967651367,12.112918515625C19.91631996765137,12.078318515625,19.926219967651367,12.039498515625,19.926219967651367,11.999998515625C19.926219967651367,11.960498515625,19.91631996765137,12.121638515625,19.897319967651367,12.087038515625L15.935319967651367,4.890198515625C15.915619967651367,4.854178515625,15.886719967651366,4.824088515625,15.851419967651367,4.803098515625C15.816219967651367,4.782108515625,15.775919967651367,4.770988515625,15.734919967651367,4.770878515625L8.266659967651368,4.770878515625C8.225629967651368,4.770988515625,8.185379967651368,4.782108515625,8.150139967651366,4.803098515625C8.114889967651367,4.824088515625,8.085909967651368,4.854178515625,8.066279967651367,4.890198515625L4.104309967651368,11.887088515625C4.085289967651367,11.921688515625,4.075319967651367,11.960498515625,4.075319967651367,11.999998515625C4.075319967651367,12.039498515625,4.085289967651367,12.078318515625,4.104309967651368,12.112918515625L8.066279967651367,19.109878515625C8.085949967651366,19.145778515625,8.114969967651367,19.175878515625,8.150209967651367,19.196778515625C8.185449967651367,19.217778515625,8.225659967651367,19.228778515625,8.266659967651368,19.228778515625L15.734919967651367,19.228778515625C15.775919967651367,19.228778515625,15.816119967651368,19.217778515625,15.851419967651367,19.196778515625C15.886619967651367,19.175878515625,15.915619967651367,19.145778515625,15.935319967651367,19.109878515625L19.897319967651367,12.112918515625ZM11.940899967651367,15.624778515625C9.889349967651366,15.624778515625,8.226419967651367,13.961778515625,8.226419967651367,11.910298515625C8.226419967651367,9.858708515625,9.889349967651366,8.195778515625001,11.940899967651367,8.195778515625001C13.992219967651367,8.195778515625001,15.655419967651367,9.858708515625,15.655419967651367,11.910298515625C15.655419967651367,13.961778515625,13.992219967651367,15.624778515625,11.940899967651367,15.624778515625ZM11.940899967651367,14.231778515625C13.223119967651368,14.231778515625,14.262519967651366,13.192478515625,14.262519967651366,11.910298515625C14.262519967651366,10.628098515625,13.223119967651368,9.588708515625001,11.940899967651367,9.588708515625001C10.658699967651367,9.588708515625001,9.619349967651367,10.628098515625,9.619349967651367,11.910298515625C9.619349967651367,13.192478515625,10.658699967651367,14.231778515625,11.940899967651367,14.231778515625Z" fill="#333333" fill-opacity="1"/></g></g></g></g></svg>