<svg xmlns="http://www.w3.org/2000/svg" xmlns:xlink="http://www.w3.org/1999/xlink" fill="none" version="1.1" width="24" height="24" viewBox="0 0 24 24"><g><g><g></g><g><path d="M10.99642,20.3539L4.56412,20.2769C4.0431799999999996,20.2772,3.62566,19.8449,3.64303,19.3231C3.70952,15.6828,6.51588,12.6842,10.13673,12.3847L10.91966,12.3847C11.91194,12.3722,12.8805,12.0788,13.7136,11.53859L14.0053,11.33859C15.2631,10.35822,16.0086,8.85843,16.0317,7.26172C16.0378,6.65948,15.9391,6.06079,15.74,5.492509999999999L15.6479,5.24636C14.8423,3.28843,12.9409,2.00800017,10.82755,2.000246152C9.49996,1.9870867,8.22256,2.50801,7.28134,3.44638C6.29974,4.41707,5.7468699999999995,5.7412600000000005,5.74619,7.12326C5.716559999999999,8.70293,6.39892,10.21186,7.60373,11.2309L7.52697,11.2309C4.2078500000000005,12.526,2.0161746,15.7229,2.000414503,19.2923C1.9747684,20.7173,3.11139,21.8909,4.53342,21.9077L10.96571,22C11.37903,21.9608,11.6966,21.616,11.70259,21.2C11.74767,20.7601,11.40695,20.376,10.96571,20.3693L10.99642,20.3539ZM7.34275,7.15403L7.34275,6.96942C7.46499,5.07693,9.042729999999999,3.61069,10.93501,3.6310000000000002C12.9081,3.64788,14.4915,5.26912,14.4659,7.24634C14.4411,9.218029999999999,12.8257,10.7961,10.85824,10.7706C8.89076,10.74511,7.31663,9.12571,7.34275,7.15403ZM17.1524,14.9693L16.584400000000002,14.9693C15.1341,14.9862,14.1563,16.4615,14.7029,17.8077C15.2496,19.154,16.9775,19.5258,18.0274,18.5231C18.5082,18.0639,18.7272,17.3938,18.6108,16.738500000000002C18.5315,15.9054,17.9538,15.2047,17.1524,14.9693ZM16.5997,17.707700000000003C16.256999999999998,17.6096,16.020699999999998,17.2957,16.020699999999998,16.938499999999998C16.020699999999998,16.5813,16.256999999999998,16.267400000000002,16.5997,16.1693C17.0467,16.1692,17.406599999999997,16.5369,17.398,16.9847C17.351599999999998,17.3928,17.0096,17.7026,16.5997,17.707700000000003ZM21.9574,16.9539C21.9716,16.738799999999998,21.9716,16.5229,21.9574,16.3078L21.9574,15.8462C21.9076,15.4752,21.6203,15.1811,21.2512,15.1232L21.1591,15.1232C20.5895,15.1238,20.135,14.6472,20.1613,14.077C20.1524,13.9952,20.1524,13.9127,20.1613,13.8309C20.1638,13.7848,20.1638,13.7385,20.1613,13.6924C20.2972,13.3045,20.1742,12.8729,19.8543,12.6155L18.6261,11.9232C18.4822,11.87154,18.3249,11.87154,18.1809,11.9232C17.9347,11.97146,17.709400000000002,12.0951,17.5362,12.277C17.311700000000002,12.5318,17.0094,12.7049,16.6765,12.7693C16.397100000000002,12.6832,16.1402,12.536,15.9243,12.3386L15.8168,12.1694C15.654,12.0183,15.4517,11.91693,15.2334,11.87705C15.097,11.86797,14.9616,11.90597,14.8497,11.98474L13.5141,12.6463C13.1963,12.905,13.0685,13.3319,13.1917,13.7232C13.2128,13.8608,13.2128,14.0009,13.1917,14.1386C13.1918,14.6969,12.7356,15.1471,12.1785,15.1385C11.77512,15.1538,11.43665,15.4482,11.36485,15.8462C11.28295,16.1949,11.23158,16.5501,11.21134,16.9078C11.19117,17.2711,11.23269,17.635199999999998,11.33415,17.9847C11.39018,18.3497,11.67603,18.6362,12.0403,18.6924L12.1324,18.6924C12.6957,18.6921,13.1476,19.1589,13.1303,19.7231C13.1381,19.7998,13.1381,19.8771,13.1303,19.9539C13.1267,20.0051,13.1267,20.0565,13.1303,20.1077C12.987,20.5001,13.1107,20.9403,13.4373,21.2L14.7115,21.9385C14.8917,21.9932,15.084,21.9932,15.2641,21.9385C15.4751,21.8782,15.6626,21.7548,15.8014,21.5846C15.9396,21.4462,16.3234,21.0923,16.615099999999998,21.0769C16.9431,21.16,17.2345,21.3493,17.4441,21.6154C17.6216,21.8119,17.8706,21.9283,18.1349,21.9385C18.2654,21.9753,18.4035,21.9753,18.534,21.9385L19.7928,21.2769C20.1484,21.0379,20.2838,20.5791,20.1152,20.1846C20.0972,20.0571,20.0972,19.9276,20.1152,19.8C20.115,19.2355,20.5807,18.7827,21.1438,18.8L21.2205,18.8C21.5932,18.755,21.8892,18.4647,21.9421,18.0924C22.0137,17.7167,22.0189,17.331400000000002,21.9574,16.9539ZM20.6372,17.5693C20.1457,17.6465,19.6957,17.890900000000002,19.363,18.2616C18.9842,18.6817,18.7856,19.2344,18.8103,19.8C18.8128,19.9832,18.8439,20.1649,18.9025,20.3385L18.1349,20.7385L17.8432,20.4616C17.4862,20.1848,17.0509,20.0286,16.5997,20.0154C16.147100000000002,20.0327,15.7095,20.1824,15.3409,20.4462L15.1874,20.5693L15.0492,20.6769L14.2816,20.2616C14.347,20.0893,14.3833,19.9073,14.3891,19.7231C14.4158,19.1626,14.2293,18.6127,13.8672,18.1847C13.5501,17.8097,13.1184,17.5501,12.639,17.446199999999997L12.639,17.384700000000002C12.6299,17.2361,12.6299,17.0871,12.639,16.938499999999998C12.6312,16.8258,12.6312,16.712699999999998,12.639,16.600099999999998L12.639,16.384700000000002L12.7465,16.384700000000002C13.2325,16.3042,13.6765,16.060000000000002,14.0053,15.6924C14.3842,15.2723,14.5827,14.7196,14.558,14.1539C14.5558,13.9707,14.5247,13.789,14.4659,13.6155L15.2181,13.2155C15.3023,13.2969,15.3949,13.3692,15.4944,13.4309C15.8307,13.692,16.2367,13.8473,16.661099999999998,13.877C17.089199999999998,13.8548,17.5009,13.7048,17.8432,13.4463L18.0581,13.277L18.8103,13.6924C18.7518,13.866,18.7207,14.0477,18.7182,14.2309C18.6899,14.7916,18.8767,15.342,19.2402,15.7693C19.5612,16.147199999999998,19.9987,16.4071,20.4837,16.5078L20.4837,16.6616C20.4941,16.8153,20.4941,16.9695,20.4837,17.1231C20.5053,17.3071,20.5053,17.493000000000002,20.4837,17.677L20.6372,17.5693Z" fill="#333333" fill-opacity="1"/></g></g></g></svg>