<svg xmlns="http://www.w3.org/2000/svg" xmlns:xlink="http://www.w3.org/1999/xlink" fill="none" version="1.1" width="24" height="24" viewBox="0 0 24 24"><defs><clipPath id="master_svg0_534_3778"><rect x="0" y="0" width="24" height="24" rx="0"/></clipPath></defs><g clip-path="url(#master_svg0_534_3778)"><g><path d="M16.2812,3C17.0134,3.00000214577,17.6998,3.356251,18.1212,3.954984L18.1852,4.05117L21.3727,9.11353C21.9006,9.95203,21.816,11.03255,21.1762,11.7776L21.0999,11.86205L12.7656,20.635C12.2901,21.1355,11.49891,21.1558,10.9984,20.6803L10.95307,20.635L2.6187899999999997,11.86205C1.9363136,11.14366,1.806892,10.067599999999999,2.287806,9.211310000000001L2.3460010000000002,9.11353L5.53343,4.05117C5.92354,3.431585,6.59072,3.0405561,7.32192,3.00295329L7.43745,3L16.2812,3ZM16.2812,4.5L7.43745,4.5C7.20688,4.5,6.98912,4.60605,6.84696,4.78758L6.80278,4.85039L3.6153500000000003,9.912749999999999C3.44567,10.18228,3.46582,10.526810000000001,3.65871,10.77375L3.70629,10.82892L11.85933,19.4105L20.0124,10.8289C20.2149,10.61576,20.2713,10.308119999999999,20.1682,10.041820000000001L20.1391,9.9762L20.1033,9.91273L16.9159,4.85039C16.793,4.65527,16.5873,4.5275,16.3579,4.50391L16.2812,4.5ZM14.8645,9.96968L15.9252,11.03032L11.85933,15.0962L7.79346,11.03032L8.85413,9.96968L11.85933,12.975L14.8645,9.96968Z" fill="#FFFFFF" fill-opacity="1"/></g></g></svg>