<svg xmlns="http://www.w3.org/2000/svg" xmlns:xlink="http://www.w3.org/1999/xlink" fill="none" version="1.1" width="36" height="36" viewBox="0 0 36 36"><defs><filter id="master_svg0_549_9572/454_3313" filterUnits="objectBoundingBox" color-interpolation-filters="sRGB" x="0" y="0" width="23.0017032623291" height="23.196523666381836"><feFlood flood-opacity="0" result="BackgroundImageFix"/><feBlend mode="normal" in="SourceGraphic" in2="BackgroundImageFix" result="shape"/><feColorMatrix in="SourceAlpha" type="matrix" result="hardAlpha" values="0 0 0 0 0 0 0 0 0 0 0 0 0 0 0 0 0 0 127 0"/><feOffset dy="0" dx="0"/><feGaussianBlur stdDeviation="1.5"/><feComposite in2="hardAlpha" operator="arithmetic" k2="-1" k3="1"/><feColorMatrix type="matrix" values="0 0 0 0 0.8318583965301514 0 0 0 0 0.9075222015380859 0 0 0 0 1 0 0 0 0.8199999928474426 0"/><feBlend mode="normal" in2="shape" result="effect1_innerShadow"/></filter><filter id="master_svg1_549_9572/454_3314" filterUnits="objectBoundingBox" color-interpolation-filters="sRGB" x="0" y="0" width="23.0017032623291" height="23.196523666381836"><feFlood flood-opacity="0" result="BackgroundImageFix"/><feBlend mode="normal" in="SourceGraphic" in2="BackgroundImageFix" result="shape"/><feColorMatrix in="SourceAlpha" type="matrix" result="hardAlpha" values="0 0 0 0 0 0 0 0 0 0 0 0 0 0 0 0 0 0 127 0"/><feOffset dy="-0.5" dx="0"/><feGaussianBlur stdDeviation="1"/><feComposite in2="hardAlpha" operator="arithmetic" k2="-1" k3="1"/><feColorMatrix type="matrix" values="0 0 0 0 0.8886694312095642 0 0 0 0 0.9158589839935303 0 0 0 0 0.9702380895614624 0 0 0 0.30000001192092896 0"/><feBlend mode="normal" in2="shape" result="effect1_innerShadow"/><feColorMatrix in="SourceAlpha" type="matrix" result="hardAlpha" values="0 0 0 0 0 0 0 0 0 0 0 0 0 0 0 0 0 0 127 0"/><feOffset dy="0" dx="0"/><feGaussianBlur stdDeviation="1.5"/><feComposite in2="hardAlpha" operator="arithmetic" k2="-1" k3="1"/><feColorMatrix type="matrix" values="0 0 0 0 1 0 0 0 0 1 0 0 0 0 1 0 0 0 0.30000001192092896 0"/><feBlend mode="normal" in2="effect1_innerShadow" result="effect2_innerShadow"/><feGaussianBlur in="BackgroundImage" stdDeviation="4"/><feComposite in2="SourceAlpha" operator="in" result="effect3_foregroundBlur"/><feBlend mode="normal" in="SourceGraphic" in2="effect3_foregroundBlur" result="shape"/></filter></defs><g><g></g><g><g transform="matrix(1,-2.8058117607088207e-8,2.8058117607088207e-8,1,-1.197128085550503e-7,2.4854741642599265e-7)" filter="url(#master_svg0_549_9572/454_3313)"><rect x="8.858306884765625" y="4.2666015625" width="23.0017032623291" height="23.196523666381836" rx="5" fill="#2B6BFF" fill-opacity="1"/></g><g filter="url(#master_svg1_549_9572/454_3314)"><rect x="4.1400146484375" y="8.43017578125" width="23.0017032623291" height="23.196523666381836" rx="5" fill="#D9E5FF" fill-opacity="0.5099999904632568"/></g><g><ellipse cx="15.84001350402832" cy="20.160234451293945" rx="7.920000076293945" ry="7.920000076293945" fill="#FFFFFF" fill-opacity="1"/></g></g><g><path d="M15.839989013671875,20.16015625L15.839989013671875,25.20015625C15.760499013671875,25.20015625,15.680999013671876,25.17972625,15.610859013671874,25.13887625L11.706252013671875,23.00951625C11.537909613671875,22.91760625,11.472443213671875,22.69292625,11.556614313671876,22.50909625C11.589347513671875,22.43760625,11.640785013671875,22.38143625,11.706252013671875,22.34568625L13.473849013671876,21.38058625L15.615529013671875,20.21632675C15.685679013671875,20.18058225,15.760499013671875,20.160156639586,15.839989013671875,20.16015625Z" fill="#1D72EF" fill-opacity="1"/></g><g><path d="M15.839989013671875,17.64013671875L15.839989013671875,22.68013671875C15.760499013671875,22.68013671875,15.685679013671875,22.65970671875,15.610859013671874,22.61885671875L13.473849013671876,21.449496718749998L11.706252013671875,20.48438671875C11.537909613671875,20.39247671875,11.472443213671875,20.17290671875,11.556614313671876,19.98907671875C11.589347513671875,19.91758671875,11.640785013671875,19.86141671875,11.706252013671875,19.82566671875L15.610859013671874,17.69630661875C15.685679013671875,17.66056191875,15.760499013671875,17.640136523957,15.839989013671875,17.64013671875Z" fill="#2190F4" fill-opacity="1"/></g><g><path d="M20.317176337890626,17.93710071875L18.334646337890625,18.91859671875L18.334646337890625,21.228866718749998C18.334646337890625,21.37986671875,18.248446337890627,21.51576671875,18.116616337890626,21.58120671875L16.083376337890623,22.592896718749998C16.007320337890626,22.62812671875,15.921123437890625,22.648256718749998,15.839996337890625,22.65329671875L15.839996337890625,25.20013671875C15.926193337890625,25.20013671875,16.007320337890626,25.18000671875,16.083376337890623,25.13973671875L20.317176337890626,23.04085671875C20.433796337890627,22.98548671875,20.509856337890625,22.86972671875,20.519996337890625,22.74389671875L20.519996337890625,22.68852671875L20.514926337890625,17.64013671875" fill="#195EEB" fill-opacity="1"/></g><g><path d="M20.321969013671875,17.812595625L16.252009013671874,20.098105625C16.100909013671874,20.180315625,15.930319013671875,20.180315625,15.779219013671874,20.098105625L11.714139013671875,17.812595625C11.538668513671874,17.713935625,11.470429813671876,17.478265625,11.558165313671875,17.280955625C11.592284613671875,17.204225625,11.645901013671875,17.143935625,11.714139013671875,17.105565625L15.759719013671875,14.825535725C15.920569013671875,14.737842225,16.110659013671874,14.737842225,16.271509013671874,14.825535725L20.321969013671875,17.100085625C20.497439013671872,17.198745625,20.570549013671876,17.434415625,20.482809013671876,17.631725625C20.448689013671874,17.708455625,20.390199013671875,17.774225625,20.321969013671875,17.812595625Z" fill="#2CABFB" fill-opacity="1"/></g></g></svg>