<svg xmlns="http://www.w3.org/2000/svg" xmlns:xlink="http://www.w3.org/1999/xlink" fill="none" version="1.1" width="36" height="36" viewBox="0 0 36 36"><defs><filter id="master_svg0_549_7860/454_2992" filterUnits="objectBoundingBox" color-interpolation-filters="sRGB" x="0" y="0" width="23.0017032623291" height="23.196523666381836"><feFlood flood-opacity="0" result="BackgroundImageFix"/><feBlend mode="normal" in="SourceGraphic" in2="BackgroundImageFix" result="shape"/><feColorMatrix in="SourceAlpha" type="matrix" result="hardAlpha" values="0 0 0 0 0 0 0 0 0 0 0 0 0 0 0 0 0 0 127 0"/><feOffset dy="0" dx="0"/><feGaussianBlur stdDeviation="1.5"/><feComposite in2="hardAlpha" operator="arithmetic" k2="-1" k3="1"/><feColorMatrix type="matrix" values="0 0 0 0 0.8318583965301514 0 0 0 0 0.9075222015380859 0 0 0 0 1 0 0 0 0.8199999928474426 0"/><feBlend mode="normal" in2="shape" result="effect1_innerShadow"/></filter><filter id="master_svg1_549_7860/454_2993" filterUnits="objectBoundingBox" color-interpolation-filters="sRGB" x="0" y="0" width="23.0017032623291" height="23.196523666381836"><feFlood flood-opacity="0" result="BackgroundImageFix"/><feBlend mode="normal" in="SourceGraphic" in2="BackgroundImageFix" result="shape"/><feColorMatrix in="SourceAlpha" type="matrix" result="hardAlpha" values="0 0 0 0 0 0 0 0 0 0 0 0 0 0 0 0 0 0 127 0"/><feOffset dy="-0.5" dx="0"/><feGaussianBlur stdDeviation="1"/><feComposite in2="hardAlpha" operator="arithmetic" k2="-1" k3="1"/><feColorMatrix type="matrix" values="0 0 0 0 0.8886694312095642 0 0 0 0 0.9158589839935303 0 0 0 0 0.9702380895614624 0 0 0 0.30000001192092896 0"/><feBlend mode="normal" in2="shape" result="effect1_innerShadow"/><feColorMatrix in="SourceAlpha" type="matrix" result="hardAlpha" values="0 0 0 0 0 0 0 0 0 0 0 0 0 0 0 0 0 0 127 0"/><feOffset dy="0" dx="0"/><feGaussianBlur stdDeviation="1.5"/><feComposite in2="hardAlpha" operator="arithmetic" k2="-1" k3="1"/><feColorMatrix type="matrix" values="0 0 0 0 1 0 0 0 0 1 0 0 0 0 1 0 0 0 0.30000001192092896 0"/><feBlend mode="normal" in2="effect1_innerShadow" result="effect2_innerShadow"/><feGaussianBlur in="BackgroundImage" stdDeviation="4"/><feComposite in2="SourceAlpha" operator="in" result="effect3_foregroundBlur"/><feBlend mode="normal" in="SourceGraphic" in2="effect3_foregroundBlur" result="shape"/></filter></defs><g><g></g><g><g transform="matrix(1,-2.8058117607088207e-8,2.8058117607088207e-8,1,-1.197128085550503e-7,2.4854827262998924e-7)" filter="url(#master_svg0_549_7860/454_2992)"><rect x="8.85833740234375" y="4.2666015625" width="23.0017032623291" height="23.196523666381836" rx="5" fill="#2B6BFF" fill-opacity="1"/></g><g filter="url(#master_svg1_549_7860/454_2993)"><rect x="4.1400146484375" y="8.43017578125" width="23.0017032623291" height="23.196523666381836" rx="5" fill="#D9E5FF" fill-opacity="0.5099999904632568"/></g><g><ellipse cx="15.839982986450195" cy="20.160234451293945" rx="7.920000076293945" ry="7.920000076293945" fill="#FFFFFF" fill-opacity="1"/></g><g><g><path d="M19.43014986328125,16.834925148162842C18.89043986328125,15.715431148162843,17.53215986328125,14.759765148162842,15.99397986328125,14.759765148162842C15.18440986328125,14.759765148162842,13.95206986328125,15.041914148162842,13.03006086328125,16.170515148162842C12.41388986328125,16.925945148162842,12.20699986328125,17.804245148162842,12.33743036328125,18.687105148162843C12.42738186328125,19.29235514816284,12.76020486328125,20.088745148162843,13.23695086328125,20.59388514816284C13.41684986328125,19.315105148162843,14.08249986328125,18.309385148162843,14.95503986328125,17.572155148162842C16.52469986328125,16.34799514816284,18.20679986328125,16.416255148162843,19.43014986328125,16.834925148162842Z" fill="#01CC7A" fill-opacity="1"/></g><g><path d="M20.86178154296875,18.84928702316284C19.87865154296875,17.57455042316284,18.17425154296875,17.216890023162843,16.63983154296875,17.785479023162843C16.69036594296875,17.799235023162844,16.74090154296875,17.81299102316284,16.78684154296875,17.83133302316284C19.06091154296875,18.606267023162843,20.29212154296875,21.06862702316284,19.53410154296875,23.329227023162844C19.33196154296875,23.929917023162844,19.01037154296875,24.45723702316284,18.60150154296875,24.892847023162844C19.09307154296875,24.755287023162843,19.59382154296875,24.56269702316284,20.02107154296875,24.23254702316284C21.75763154296875,22.90736702316284,22.09759154296875,20.44959702316284,20.86178154296875,18.84928702316284Z" fill="#01CC7A" fill-opacity="1"/></g><g><path d="M16.04358244140625,22.78982264816284C15.68647244140625,22.78982264816284,15.338872441406249,22.748292648162842,15.005572441406251,22.67906264816284C14.96271244140625,22.66984264816284,14.92462244140625,22.665222648162842,14.877002441406251,22.66984264816284C14.77701244140625,22.67445264816284,14.69130244140625,22.70675264816284,14.605602441406251,22.75751264816284L13.50568244140625,23.44049264816284C13.47711244140625,23.458952648162843,13.443782441406249,23.47279264816284,13.405682441406249,23.47741264816284C13.31045244140625,23.482022648162843,13.22951244140625,23.408192648162842,13.22474244140625,23.31589264816284C13.22474244140625,23.274362648162843,13.23903244140625,23.23283264816284,13.24855244140625,23.191302648162843C13.25331244140625,23.168222648162843,13.37235244140625,22.655992648162844,13.443782441406249,22.33296264816284C13.453302441406251,22.296042648162842,13.45806244140625,22.263742648162843,13.45806244140625,22.22682264816284C13.453302441406251,22.11607264816284,13.39140244140625,22.01916264816284,13.30569244140625,21.96379264816284C12.14387244140625,21.19774264816284,11.34869444140625,19.993312648162842,11.17727844140625,18.751952648162842C10.88682344140625,19.19496464816284,10.72969244140625,19.550296648162842,10.57732244140625,20.062532648162843C10.01069744140625,21.982242648162842,11.25346344140625,24.284982648162842,13.27712244140625,24.931042648162844C15.60552244140625,25.674012648162844,17.82917244140625,24.838752648162842,18.59578244140625,22.91903264816284C18.69101244140625,22.683682648162844,18.79100244140625,22.291432648162843,18.81005244140625,21.95917264816284C17.99582244140625,22.54062264816284,17.13398244140625,22.78982264816284,16.04358244140625,22.78982264816284Z" fill="#01CC7A" fill-opacity="1"/></g></g></g></g></svg>