<svg xmlns="http://www.w3.org/2000/svg" xmlns:xlink="http://www.w3.org/1999/xlink" fill="none" version="1.1" width="36" height="36" viewBox="0 0 36 36"><defs><filter id="master_svg0_549_9578/454_3290" filterUnits="objectBoundingBox" color-interpolation-filters="sRGB" x="0" y="0" width="23.0017032623291" height="23.196523666381836"><feFlood flood-opacity="0" result="BackgroundImageFix"/><feBlend mode="normal" in="SourceGraphic" in2="BackgroundImageFix" result="shape"/><feColorMatrix in="SourceAlpha" type="matrix" result="hardAlpha" values="0 0 0 0 0 0 0 0 0 0 0 0 0 0 0 0 0 0 127 0"/><feOffset dy="0" dx="0"/><feGaussianBlur stdDeviation="1.5"/><feComposite in2="hardAlpha" operator="arithmetic" k2="-1" k3="1"/><feColorMatrix type="matrix" values="0 0 0 0 0.8318583965301514 0 0 0 0 0.9075222015380859 0 0 0 0 1 0 0 0 0.8199999928474426 0"/><feBlend mode="normal" in2="shape" result="effect1_innerShadow"/></filter><filter id="master_svg1_549_9578/454_3291" filterUnits="objectBoundingBox" color-interpolation-filters="sRGB" x="0" y="0" width="23.0017032623291" height="23.196523666381836"><feFlood flood-opacity="0" result="BackgroundImageFix"/><feBlend mode="normal" in="SourceGraphic" in2="BackgroundImageFix" result="shape"/><feColorMatrix in="SourceAlpha" type="matrix" result="hardAlpha" values="0 0 0 0 0 0 0 0 0 0 0 0 0 0 0 0 0 0 127 0"/><feOffset dy="-0.5" dx="0"/><feGaussianBlur stdDeviation="1"/><feComposite in2="hardAlpha" operator="arithmetic" k2="-1" k3="1"/><feColorMatrix type="matrix" values="0 0 0 0 0.8886694312095642 0 0 0 0 0.9158589839935303 0 0 0 0 0.9702380895614624 0 0 0 0.30000001192092896 0"/><feBlend mode="normal" in2="shape" result="effect1_innerShadow"/><feColorMatrix in="SourceAlpha" type="matrix" result="hardAlpha" values="0 0 0 0 0 0 0 0 0 0 0 0 0 0 0 0 0 0 127 0"/><feOffset dy="0" dx="0"/><feGaussianBlur stdDeviation="1.5"/><feComposite in2="hardAlpha" operator="arithmetic" k2="-1" k3="1"/><feColorMatrix type="matrix" values="0 0 0 0 1 0 0 0 0 1 0 0 0 0 1 0 0 0 0.30000001192092896 0"/><feBlend mode="normal" in2="effect1_innerShadow" result="effect2_innerShadow"/><feGaussianBlur in="BackgroundImage" stdDeviation="4"/><feComposite in2="SourceAlpha" operator="in" result="effect3_foregroundBlur"/><feBlend mode="normal" in="SourceGraphic" in2="effect3_foregroundBlur" result="shape"/></filter></defs><g><g></g><g><g transform="matrix(1,-2.8058117607088207e-8,2.8058117607088207e-8,1,-1.197128085550503e-7,2.4854827262998924e-7)" filter="url(#master_svg0_549_9578/454_3290)"><rect x="8.85833740234375" y="4.2666015625" width="23.0017032623291" height="23.196523666381836" rx="5" fill="#2B6BFF" fill-opacity="1"/></g><g filter="url(#master_svg1_549_9578/454_3291)"><rect x="4.1400146484375" y="8.43017578125" width="23.0017032623291" height="23.196523666381836" rx="5" fill="#D9E5FF" fill-opacity="0.5099999904632568"/></g><g><ellipse cx="15.839982986450195" cy="20.160234451293945" rx="7.920000076293945" ry="7.920000076293945" fill="#FFFFFF" fill-opacity="1"/></g></g><g><g><path d="M20.475902441406248,19.068465625C20.44030244140625,18.786235625,20.40477244140625,18.522825625,20.33368244140625,18.240595625C20.06708244140625,17.281015625000002,19.51611244140625,16.453145625,18.75185244140625,15.888675625C17.809882441406252,15.154882625,16.67238244140625,14.759765816058,15.499342441406249,14.759765816058C15.23274244140625,14.759765816058,14.96613244140625,14.778585625,14.71730244140625,14.816214225C14.21965244140625,14.872662625,13.73977244140625,15.004368625,13.27766244140625,15.211342625C12.49563244140625,15.550010625,11.82025244140625,16.076845625,11.30482844140625,16.773015625C10.22064644140625,18.202965625,10.14955644140625,20.216215625,11.12709444140625,21.721435624999998C11.35814144140625,22.078925625,11.62474244140625,22.398785625000002,11.92689244140625,22.662205625C11.96243244140625,22.699825625,11.98021244140625,22.737465625,11.98021244140625,22.775095625C11.96243244140625,22.925615625,11.92689244140625,23.076145625000002,11.89134244140625,23.226655625C11.83802244140625,23.414815625,11.80247244140625,23.621785625,11.80247244140625,23.828755625C11.80247244140625,23.960465624999998,11.83802244140625,24.092175625,11.90912244140625,24.223875624999998C12.10462244140625,24.600185625,12.56673244140625,24.713065625,12.90442244140625,24.506105625C13.242112441406249,24.299135624999998,13.57981244140625,24.073355624999998,13.91751244140625,23.866385625C13.97083244140625,23.828745625,14.04192244140625,23.828745625,14.09524244140625,23.847565625C14.48625244140625,23.941645625,14.89503244140625,24.016905625,15.30383244140625,24.016905625C15.730382441406249,24.035725624999998,16.17472244140625,23.998095624999998,16.601282441406248,23.904015625C16.81456244140625,23.847565625,17.02784244140625,23.791125625,17.25889244140625,23.734685624999997L16.81456244140625,23.057325625L16.779022441406248,23.057325625C16.47686244140625,23.113775625000002,16.17473244140625,23.207845624999997,15.85479244140625,23.226655625C15.21496244140625,23.283105624999997,14.55734244140625,23.207845624999997,13.93527244140625,23.000875625C13.88196244140625,22.982065625,13.82864244140625,22.982065625,13.77532244140625,23.019695625C13.47317244140625,23.207845624999997,13.17103244140625,23.396005625,12.86888244140625,23.602965625C12.74446244140625,23.678235625,12.63782244140625,23.753495625,12.49563244140625,23.828745625C12.513412441406249,23.753495625,12.513412441406249,23.697045625,12.513412441406249,23.659415625C12.58450244140625,23.264295625000003,12.65560244140625,22.887975625,12.74447244140625,22.492865625C12.76223244140625,22.436425625,12.74447244140625,22.379975625,12.691152441406249,22.361155625000002C12.40677244140625,22.154195625,12.14017244140625,21.890775625,11.90912244140625,21.608545624999998C11.28705144140625,20.855935625,11.00267344140625,19.858715625000002,11.16263944140625,18.861505625C11.26927444140625,18.165335625,11.57142244140625,17.506805625,12.05131244140625,16.998785625C12.46009244140625,16.547225625,12.93998244140625,16.189735625,13.49094244140625,15.945125625C13.97083244140625,15.756976625,14.48625244140625,15.625270625,14.98390244140625,15.587641625C15.321602441406249,15.568822625,15.67706244140625,15.568822625,16.01476244140625,15.606450625C16.37023244140625,15.625270625,16.72569244140625,15.719347625,17.06339244140625,15.851055625C17.79210244140625,16.114465625,18.44971244140625,16.566025625,18.94736244140625,17.186945625C19.30282244140625,17.600875625,19.53388244140625,18.108895625,19.65829244140625,18.654535625C19.711612441406253,18.880315625,19.729392441406247,19.124915625,19.764942441406248,19.350705625L20.49360244140625,19.463595625C20.49360244140625,19.331885624999998,20.49360244140625,19.200175625,20.475902441406248,19.068465625Z" fill="#007AFF" fill-opacity="1"/></g><g><path d="M18.09426527734375,23.5091978125C17.72103027734375,23.5091978125,17.41888427734375,23.1893378125,17.41888427734375,22.7942178125C17.41888427734375,22.4743578125,17.63216327734375,22.1921208125,17.91653227734375,22.0980548125C18.05872127734375,22.0604258125,18.21867827734375,22.0416058125,18.37864527734375,21.9851578125C18.66302427734375,21.8534528125,18.92961427734375,21.6841068125,19.17843427734375,21.4583350125C19.19621427734375,21.4395155125,19.23176427734375,21.4206954125,19.26730427734375,21.4018866125C19.32062427734375,21.3830671125,19.37395427734375,21.3830671125,19.42726427734375,21.3642578125C19.42726427734375,21.4206954125,19.42726427734375,21.4771438125,19.40949427734375,21.5335918125C19.37395427734375,21.6088488125,19.32062427734375,21.6841178125,19.26730427734375,21.7593748125C19.07180427734375,22.0227858125,18.91183427734375,22.3238368125,18.82297427734375,22.6625178125C18.78743427734375,22.7565978125,18.78743427734375,22.8694778125,18.76965427734375,22.9823778125C18.66301427734375,23.2834278125,18.39641227734375,23.5091978125,18.09426527734375,23.5091978125Z" fill="#FCD514" fill-opacity="1"/></g><g><path d="M20.03167265625,25.56009390625C19.67620665625,25.56009390625,19.35628465625,25.25904390625,19.35628465625,24.88274390625C19.32074965625,24.58169390625,19.19632765625,24.29946490625,19.03637065625,24.05487290625C18.94750365625,23.92315690625,18.84085965625,23.79145090625,18.75199225625,23.64092590625C18.71644727625,23.58448890625,18.69866995625,23.50921970625,18.71644727625,23.45278260625C18.76976955625,23.37751470625,18.85863665625,23.43396310625,18.91194865625,23.49040020625C19.10745965625,23.62211590625,19.30296065625,23.77264190625,19.51624065625,23.90434790625C19.71175265625,24.03605390625,19.92504265625,24.11131090625,20.15609265625,24.14895090625C20.47600265625,24.18656790625,20.72483265625,24.48762390625,20.72483265625,24.82628390625C20.72483265625,25.16495390625,20.52932265625,25.46601390625,20.20941265625,25.541273906249998C20.13831265625,25.56009390625,20.08499265625,25.56009390625,20.03167265625,25.56009390625Z" fill="#FF6702" fill-opacity="1"/></g><g><path d="M22.68006541015625,22.7564555625C22.66229541015625,23.1515765625,22.37791541015625,23.4526265625,22.02244541015625,23.4902565625C21.77362541015625,23.5278665625,21.54257941015625,23.6219565625,21.32929041015625,23.7913065625C21.15155641015625,23.9041865625,20.99160041015625,24.0358965625,20.83163241015625,24.1675965625C20.81386541015625,24.1864165625,20.79609841015625,24.205226562500002,20.77832141015625,24.205226562500002C20.74277611015625,24.2240465625,20.70722151015625,24.205226562500002,20.67167651015625,24.205226562500002C20.65390890015625,24.1676165625,20.63613161015625,24.1299765625,20.65390890015625,24.0923465625C20.68944331015625,23.9982665625,20.74277611015625,23.9230065625,20.79608741015625,23.8477365625C21.00936741015625,23.5655065625,21.16933341015625,23.2456465625,21.27596741015625,22.8881615625C21.31152241015625,22.7752645625,21.31152241015625,22.6435585625,21.34706741015625,22.5306615625C21.45370141015625,22.1919935625,21.75584541015625,21.9850193625,22.09354541015625,22.0414676725C22.39569541015625,22.0979159625,22.62674541015625,22.3425185625,22.66229541015625,22.6623785625C22.66229541015625,22.6999955625,22.68006541015625,22.7376355625,22.68006541015625,22.7564555625Z" fill="#0087FA" fill-opacity="1"/></g><g><path d="M19.3387451171875,20.70561040625C19.3387451171875,20.32930240625,19.6053471171875,20.02826230625,19.9608051171875,19.99062279625C20.3162741171875,19.95300520625,20.6361951171875,20.19759640625,20.6895151171875,20.57390440625C20.7606051171875,21.02546640625,20.9561251171875,21.45822640625,21.2582651171875,21.79689640625C21.3115851171875,21.87216640625,21.3471351171875,21.92861640625,21.3826751171875,22.00386640625C21.400445117187502,22.04149640625,21.400445117187502,22.07912640625,21.3649051171875,22.11675640625C21.3471351171875,22.13557640625,21.3115851171875,22.13557640625,21.2938151171875,22.11675640625C21.2404851171875,22.09794640625,21.1693851171875,22.06031640625,21.1338551171875,22.02267640625C20.8850151171875,21.79689640625,20.6006551171875,21.62755640625,20.2985051171875,21.49585640625C20.1740831171875,21.45822640625,20.0319031171875,21.42058640625,19.8897141171875,21.38295640625C19.5520231171875,21.34533640625,19.3387441546405,21.04428640625,19.3387451171875,20.70561040625Z" fill="#2AC402" fill-opacity="1"/></g></g></g></svg>