<svg xmlns="http://www.w3.org/2000/svg" xmlns:xlink="http://www.w3.org/1999/xlink" fill="none" version="1.1" width="36" height="36" viewBox="0 0 36 36"><defs><filter id="master_svg0_549_9575/454_3331" filterUnits="objectBoundingBox" color-interpolation-filters="sRGB" x="0" y="0" width="23.0017032623291" height="23.196523666381836"><feFlood flood-opacity="0" result="BackgroundImageFix"/><feBlend mode="normal" in="SourceGraphic" in2="BackgroundImageFix" result="shape"/><feColorMatrix in="SourceAlpha" type="matrix" result="hardAlpha" values="0 0 0 0 0 0 0 0 0 0 0 0 0 0 0 0 0 0 127 0"/><feOffset dy="0" dx="0"/><feGaussianBlur stdDeviation="1.5"/><feComposite in2="hardAlpha" operator="arithmetic" k2="-1" k3="1"/><feColorMatrix type="matrix" values="0 0 0 0 0.8318583965301514 0 0 0 0 0.9075222015380859 0 0 0 0 1 0 0 0 0.8199999928474426 0"/><feBlend mode="normal" in2="shape" result="effect1_innerShadow"/></filter><filter id="master_svg1_549_9575/454_3332" filterUnits="objectBoundingBox" color-interpolation-filters="sRGB" x="0" y="0" width="23.0017032623291" height="23.196523666381836"><feFlood flood-opacity="0" result="BackgroundImageFix"/><feBlend mode="normal" in="SourceGraphic" in2="BackgroundImageFix" result="shape"/><feColorMatrix in="SourceAlpha" type="matrix" result="hardAlpha" values="0 0 0 0 0 0 0 0 0 0 0 0 0 0 0 0 0 0 127 0"/><feOffset dy="-0.5" dx="0"/><feGaussianBlur stdDeviation="1"/><feComposite in2="hardAlpha" operator="arithmetic" k2="-1" k3="1"/><feColorMatrix type="matrix" values="0 0 0 0 0.8886694312095642 0 0 0 0 0.9158589839935303 0 0 0 0 0.9702380895614624 0 0 0 0.30000001192092896 0"/><feBlend mode="normal" in2="shape" result="effect1_innerShadow"/><feColorMatrix in="SourceAlpha" type="matrix" result="hardAlpha" values="0 0 0 0 0 0 0 0 0 0 0 0 0 0 0 0 0 0 127 0"/><feOffset dy="0" dx="0"/><feGaussianBlur stdDeviation="1.5"/><feComposite in2="hardAlpha" operator="arithmetic" k2="-1" k3="1"/><feColorMatrix type="matrix" values="0 0 0 0 1 0 0 0 0 1 0 0 0 0 1 0 0 0 0.30000001192092896 0"/><feBlend mode="normal" in2="effect1_innerShadow" result="effect2_innerShadow"/><feGaussianBlur in="BackgroundImage" stdDeviation="4"/><feComposite in2="SourceAlpha" operator="in" result="effect3_foregroundBlur"/><feBlend mode="normal" in="SourceGraphic" in2="effect3_foregroundBlur" result="shape"/></filter></defs><g><g></g><g><g transform="matrix(1,-2.8058117607088207e-8,2.8058117607088207e-8,1,-1.197128085550503e-7,2.4854741642599265e-7)" filter="url(#master_svg0_549_9575/454_3331)"><rect x="8.858306884765625" y="4.2666015625" width="23.0017032623291" height="23.196523666381836" rx="5" fill="#2B6BFF" fill-opacity="1"/></g><g filter="url(#master_svg1_549_9575/454_3332)"><rect x="4.1400146484375" y="8.43017578125" width="23.0017032623291" height="23.196523666381836" rx="5" fill="#D9E5FF" fill-opacity="0.5099999904632568"/></g><g><ellipse cx="15.84001350402832" cy="20.160234451293945" rx="7.920000076293945" ry="7.920000076293945" fill="#FFFFFF" fill-opacity="1"/></g></g><g><g><path d="M12.3349668828125,16.2001953125L15.2404448828125,16.2001953125C15.6419148828125,16.2946203125,15.7538148828125,16.4451103125,15.7979848828125,16.8611703125C15.8922148828125,17.7336153125,15.984484882812499,18.6070453125,16.0895148828125,19.4785153125C16.1169948828125,19.7057253125,16.1209248828125,19.935885312499998,16.1268148828125,20.1650653125C16.1297548828125,20.2565353125,16.1945448828125,20.3519453125,16.111104882812498,20.4384953125C16.0463248828125,20.4847253125,15.9727048828125,20.4729253125,15.9010448828125,20.4709553125C15.4887848828125,20.400135312499998,15.0706348828125,20.3971853125,14.6564048828125,20.3480053125C13.9182548828125,20.2614553125,13.1801048828125,20.1768653125,12.4409778828125,20.0942453125C12.1072408828125,20.0568653125,11.8883483228125,19.8837553125,11.8854035828125,19.4794953125C11.8785325128125,18.5549153125,11.8775509428125,17.6303453125,11.8863851528125,16.7057623125C11.8893298928125,16.3733073125,11.9541141828125,16.3182263125,12.3349668828125,16.2001953125Z" fill="#00A03B" fill-opacity="1"/></g><g><path d="M15.91699017421875,20.421525312500002C15.90712677421875,20.3524353125,15.89726337421875,20.282365312499998,15.88641357421875,20.213275312500002C15.94460777421875,20.108655312499998,15.92586717421875,19.9912053125,15.92192207421875,19.8836253125C15.90811327421875,19.4207253125,16.00576057421875,18.9686853125,16.04916057421875,18.5117153125C16.09946357421875,17.969855312500002,16.16554857421875,17.4280053125,16.22768857421875,16.8871363125C16.23262057421875,16.8476573125,16.22670257421875,16.8071903125,16.23755157421875,16.769685312500002C16.33026857421875,16.4242403125,16.37070857421875,16.2712581125,16.78497257421875,16.2001953125L19.70454357421875,16.2001953125C20.11881357421875,16.3285033125,20.15826357421875,16.3818003125,20.15826357421875,16.8229823125L20.15826357421875,19.4246753125C20.18588357421875,19.9073053125,19.87222357421875,20.0829953125,19.50925357421875,20.1204953125C18.73596357421875,20.2014253125,17.96365357421875,20.2932153125,17.19036357421875,20.3830353125C16.85303057421875,20.4225153125,16.51372857421875,20.4511353125,16.17344057421875,20.4511353125C16.08762857421875,20.442255312500002,15.99096657421875,20.5241753125,15.91699017421875,20.421525312500002Z" fill="#77BD31" fill-opacity="1"/></g><g><path d="M15.88641357421875,20.5421724125C15.88831797421875,20.5338388125,15.89022270421875,20.5255049125,15.89212710421875,20.5162452125C15.95592927421875,20.5106895125,16.01877957421875,20.5060595125,16.08258057421875,20.5005038125C16.16161957421875,20.5023556125,16.23589657421875,20.4560574125,16.31683957421875,20.4810584625C16.29017557421875,20.5116153125,16.25875157421875,20.5356906125,16.33588457421875,20.5440242125C17.15483357421875,20.6301388125,17.97283357421875,20.7190318125,18.79179357421875,20.8069988125C19.06223357421875,20.8357038125,19.33458357421875,20.8560758125,19.60407357421875,20.8931138125C19.98212357421875,20.9449688125,20.15829357421875,21.1496078125,20.15924357421875,21.5218428125C20.160203574218748,22.3005828125,20.160203574218748,23.0793228125,20.15924357421875,23.858062812500002C20.15829357421875,24.2627128125,19.93927357421875,24.4784628125,19.52789357421875,24.479392812500002C18.72227357421875,24.4803128125,17.91570357421875,24.4803128125,17.11008357421875,24.479392812500002C16.756787574218748,24.4784628125,16.53966957421875,24.3164228125,16.49300857421875,23.9784428125C16.40920857421875,23.3728628125,16.34540657421875,22.7654228125,16.27493857421875,22.1589128125C16.22065957421875,21.6931528125,16.17018857421875,21.2264628125,16.11781457421875,20.7607008125C16.11400557421875,20.7236628125,16.11400557421875,20.6810678125,16.05305957421875,20.7042168125C15.97116487421875,20.6745858125,15.91593327421875,20.6208798125,15.88641357421875,20.5421724125Z" fill="#B7DA7C" fill-opacity="1"/></g><g><path d="M12.948472208090624,17.9859306875C12.948472208090624,17.8363976875,12.949454965390625,17.6858876875,12.948472208090624,17.5363546875C12.946506695390624,17.3614106875,13.028074175390625,17.26856341161,13.207915775390624,17.26856341161C13.521409775390625,17.26856341161,13.835886775390625,17.2695407635,14.149384775390626,17.26856341161C14.308584775390624,17.2675860595,14.390154775390625,17.3487051875,14.407844775390625,17.5011706875C14.456974775390625,17.9214256875,14.503164775390625,18.3416846875,14.556234775390624,18.7609646875C14.569994775390626,18.8694446875,14.527734775390625,18.8782446875,14.437324775390625,18.8674946875C14.022604775390626,18.8166646875,13.606908775390625,18.7687746875,13.191208775390624,18.7238246875C13.027091175390625,18.705254687500002,12.945523775390624,18.6221746875,12.948472039390625,18.4550546875C12.950437545390624,18.2986746875,12.948472039390625,18.1423046875,12.948472208090624,17.9859306875ZM19.091584775390626,18.0054776875C19.091584775390626,18.1550106875,19.090604775390624,18.304544687499998,19.091584775390626,18.4540746875C19.093554775390626,18.6182646875,19.014934775390625,18.705254687500002,18.848844775390624,18.7238246875C18.434134775390625,18.7687746875,18.019414775390626,18.8176446875,17.604694775390627,18.8674946875C17.518214775390625,18.8782446875,17.472024775390626,18.8714046875,17.485784775390627,18.7599846875C17.538854775390625,18.3407046875,17.581114775390624,17.9204486875,17.631234775390624,17.5011706875C17.648924775390626,17.3516376875,17.732454775390625,17.26856383104,17.892644775390625,17.2695411835C18.206134775390623,17.2714958875,18.519634775390625,17.2695411835,18.833124775390626,17.2695411835C19.012964775390625,17.2695411835,19.093554775390626,17.3633657875,19.091584775390626,17.5373326875C19.090604775390624,17.6937066875,19.091584775390626,17.8500806875,19.091584775390626,18.0054776875Z" fill="#FEFEFE" fill-opacity="1"/></g><g><path d="M15.7221548828125,20.4741360565C15.8391048828125,20.4675418125,15.8900348828125,20.5259479125,15.886264882812501,20.6389918125C15.8023248828125,21.4124028125,15.7193248828125,22.1867528125,15.6353848828125,22.960162812500002C15.6033148828125,23.253142812500002,15.5655948828125,23.5461128125,15.5391848828125,23.8400228125C15.4995748828125,24.2846628125,15.2930248828125,24.4796628125,14.8478548828125,24.4796628125C14.0688148828125,24.4796628125,13.2897748828125,24.4806128125,12.5107348828125,24.4796628125C12.1061248828125,24.4787228125,11.8816553928125,24.2545228125,11.8807122328125,23.8503828125C11.8797690928125,23.0581328125,11.8797690928125,22.2668228125,11.8807122328125,21.4745728125C11.8807122328125,21.0977628125,12.0589668828125,20.8792108125,12.4286808828125,20.8339928125C13.1445348828125,20.7463838125,13.8632048828125,20.6719628125,14.5800048828125,20.5928318125C14.9600948828125,20.5513825125,15.341124882812501,20.5137009125,15.7221548828125,20.4741360565Z" fill="#93C45E" fill-opacity="1"/></g><g><path d="M13.674016775390625,23.41068203125L13.204323775390625,23.41068203125C13.037626575390625,23.41068203125,12.948394775390625,23.33042203125,12.948394775390625,23.16108203125C12.948394775390625,22.84101203125,12.948394775390625,22.52094103125,12.949375358390625,22.20184703125C12.949375358390625,22.05013103125,13.035665575390626,21.97378303125,13.175886775390625,21.95714303125C13.596551775390624,21.90722393125,14.018194775390626,21.86415583125,14.438864775390625,21.81129996125C14.551624775390625,21.79759653125,14.557504775390624,21.84849523125,14.547704775390624,21.93365203125C14.498674775390626,22.34769003125,14.450624775390626,22.76270803125,14.402584775390626,23.17675203125C14.384924775390624,23.33042203125,14.302564775390625,23.41166203125,14.144694775390626,23.41166203125C13.987794775390626,23.40970203125,13.830907775390624,23.40970203125,13.674016775390625,23.41068203125Z" fill="#FEFEFE" fill-opacity="1"/></g></g></g></svg>