<svg xmlns="http://www.w3.org/2000/svg" xmlns:xlink="http://www.w3.org/1999/xlink" fill="none" version="1.1" width="36" height="36" viewBox="0 0 36 36"><defs><filter id="master_svg0_549_9569/454_3054" filterUnits="objectBoundingBox" color-interpolation-filters="sRGB" x="0" y="0" width="23.0017032623291" height="23.196523666381836"><feFlood flood-opacity="0" result="BackgroundImageFix"/><feBlend mode="normal" in="SourceGraphic" in2="BackgroundImageFix" result="shape"/><feColorMatrix in="SourceAlpha" type="matrix" result="hardAlpha" values="0 0 0 0 0 0 0 0 0 0 0 0 0 0 0 0 0 0 127 0"/><feOffset dy="0" dx="0"/><feGaussianBlur stdDeviation="1.5"/><feComposite in2="hardAlpha" operator="arithmetic" k2="-1" k3="1"/><feColorMatrix type="matrix" values="0 0 0 0 0.8318583965301514 0 0 0 0 0.9075222015380859 0 0 0 0 1 0 0 0 0.8199999928474426 0"/><feBlend mode="normal" in2="shape" result="effect1_innerShadow"/></filter><filter id="master_svg1_549_9569/454_3055" filterUnits="objectBoundingBox" color-interpolation-filters="sRGB" x="0" y="0" width="23.0017032623291" height="23.196523666381836"><feFlood flood-opacity="0" result="BackgroundImageFix"/><feBlend mode="normal" in="SourceGraphic" in2="BackgroundImageFix" result="shape"/><feColorMatrix in="SourceAlpha" type="matrix" result="hardAlpha" values="0 0 0 0 0 0 0 0 0 0 0 0 0 0 0 0 0 0 127 0"/><feOffset dy="-0.5" dx="0"/><feGaussianBlur stdDeviation="1"/><feComposite in2="hardAlpha" operator="arithmetic" k2="-1" k3="1"/><feColorMatrix type="matrix" values="0 0 0 0 0.8886694312095642 0 0 0 0 0.9158589839935303 0 0 0 0 0.9702380895614624 0 0 0 0.30000001192092896 0"/><feBlend mode="normal" in2="shape" result="effect1_innerShadow"/><feColorMatrix in="SourceAlpha" type="matrix" result="hardAlpha" values="0 0 0 0 0 0 0 0 0 0 0 0 0 0 0 0 0 0 127 0"/><feOffset dy="0" dx="0"/><feGaussianBlur stdDeviation="1.5"/><feComposite in2="hardAlpha" operator="arithmetic" k2="-1" k3="1"/><feColorMatrix type="matrix" values="0 0 0 0 1 0 0 0 0 1 0 0 0 0 1 0 0 0 0.30000001192092896 0"/><feBlend mode="normal" in2="effect1_innerShadow" result="effect2_innerShadow"/><feGaussianBlur in="BackgroundImage" stdDeviation="4"/><feComposite in2="SourceAlpha" operator="in" result="effect3_foregroundBlur"/><feBlend mode="normal" in="SourceGraphic" in2="effect3_foregroundBlur" result="shape"/></filter></defs><g><g><g></g><g><g transform="matrix(1,-2.8058117607088207e-8,2.8058117607088207e-8,1,-1.197128085550503e-7,2.4854827262998924e-7)" filter="url(#master_svg0_549_9569/454_3054)"><rect x="8.85833740234375" y="4.2666015625" width="23.0017032623291" height="23.196523666381836" rx="5" fill="#2B6BFF" fill-opacity="1"/></g><g filter="url(#master_svg1_549_9569/454_3055)"><rect x="4.1400146484375" y="8.43017578125" width="23.0017032623291" height="23.196523666381836" rx="5" fill="#D9E5FF" fill-opacity="0.5099999904632568"/></g><g><ellipse cx="15.839982986450195" cy="20.160234451293945" rx="7.920000076293945" ry="7.920000076293945" fill="#FFFFFF" fill-opacity="1"/></g></g></g><g><g><path d="M18.12239708984375,18.1699571875C18.25864708984375,18.1699571875,18.39354708984375,18.1803371875,18.52727708984375,18.1959171875C18.16352708984375,16.4312471875,16.35218708984375,15.1201171875,14.28477708984375,15.1201171875C11.97339708984375,15.1201171875,10.08001708984375,16.7611371875,10.08001708984375,18.8450371875C10.08001708984375,20.0478771875,10.70995408984375,21.0356371875,11.76258708984375,21.8017471875L11.34201708984375,23.1192671875L12.81190708984375,22.3515271875C13.33785708984375,22.4599671875,13.75990708984375,22.5713971875,14.28478708984375,22.5713971875C14.41674708984375,22.5713971875,14.547577089843749,22.564607187500002,14.67732708984375,22.5540671875C14.59513708984375,22.2612271875,14.54756708984375,21.9544771875,14.54756708984375,21.6363571875C14.54755708984375,19.7228171875,16.12507708984375,18.1699571875,18.12239708984375,18.1699571875ZM15.861577089843749,16.9824771875C16.17817708984375,16.9824771875,16.38788708984375,17.199467187499998,16.38788708984375,17.529037187500002C16.38788708984375,17.8572971875,16.17817708984375,18.0772371875,15.861577089843749,18.0772371875C15.54637708984375,18.0772371875,15.23016708984375,17.8572971875,15.23016708984375,17.529037187500002C15.23017708984375,17.199367187500002,15.546387089843751,16.9824771875,15.861577089843749,16.9824771875ZM12.91878708984375,18.0772271875C12.60365708984375,18.0772271875,12.28560708984375,17.8572871875,12.28560708984375,17.5289571875C12.28560708984375,17.199367187500002,12.60366708984375,16.9824671875,12.91878708984375,16.9824671875C13.23393708984375,16.9824671875,13.44366708984375,17.199367187500002,13.44366708984375,17.5289571875C13.44369708984375,17.8572871875,13.23393708984375,18.0772271875,12.91878708984375,18.0772271875ZM21.960017089843753,21.5836371875C21.960017089843753,19.8325571875,20.27781708984375,18.4052871875,18.38849708984375,18.4052871875C16.387867089843752,18.4052871875,14.81219708984375,19.8325571875,14.81219708984375,21.5836371875C14.81219708984375,23.3377471875,16.387867089843752,24.762057187499998,18.38849708984375,24.762057187499998C18.80721708984375,24.762057187499998,19.22958708984375,24.652077187499998,19.65008708984375,24.5422571875L20.803417089843748,25.2001171875L20.48721708984375,24.1055771875C21.33121708984375,23.4459771875,21.960017089843753,22.5713871875,21.960017089843753,21.5836371875ZM17.22895708984375,21.0356371875C17.01957708984375,21.0356371875,16.808387089843748,20.8186671875,16.808387089843748,20.5973271875C16.808387089843748,20.3791571875,17.01959708984375,20.1593771875,17.22895708984375,20.1593771875C17.54701708984375,20.1593771875,17.75529708984375,20.3791471875,17.75529708984375,20.5973271875C17.75530708984375,20.8186671875,17.54701708984375,21.0356371875,17.22895708984375,21.0356371875ZM19.54178708984375,21.0356371875C19.33388708984375,21.0356371875,19.12414708984375,20.8186671875,19.12414708984375,20.5973271875C19.12414708984375,20.3791571875,19.33390708984375,20.1593771875,19.54178708984375,20.1593771875C19.85693708984375,20.1593771875,20.06809708984375,20.3791471875,20.06809708984375,20.5973271875C20.06808708984375,20.8186671875,19.85692708984375,21.0356371875,19.54178708984375,21.0356371875Z" fill="#0ABC64" fill-opacity="1"/></g></g></g></svg>